# xmcd
#
# Track frame offsets:
#	150
#	16420
#	27787
#	47422
#	69137
#	85750
#	100435
#	119362
#	137840
#	155215
#	173905
#	194060
#	212875
#	229237
#	244827
#	264702
#
# Disc length: 3634 seconds
#
# Revision: 0
# Processed by: cddbd v1.5.1PL2 Copyright (c) Steve Scherf et al.
# Submitted via: dBpowerAMP V4.0
#
DISCID=e40e3010
DTITLE=Earchild Productions - The Handbook
DYEAR=2004
DGENRE=Gangsta
TTITLE0=Get it Mobin
TTITLE1=Wasn't my fault
TTITLE2=Stationed on Lomis
TTITLE3=E.C.P We Hot
TTITLE4=Skema and Cassius
TTITLE5=Baby Girl
TTITLE6=Lake Front
TTITLE7=Smoked Out
TTITLE8=Windy City Committee
TTITLE9=Potency
TTITLE10=Triffe
TTITLE11=Full Metal Jacket
TTITLE12=Y'all Don't Wanna
TTITLE13=Relentless
TTITLE14=Don't Make Me
TTITLE15=Meet The Squad
EXTD=
EXTT0=
EXTT1=
EXTT2=
EXTT3=
EXTT4=
EXTT5=
EXTT6=
EXTT7=
EXTT8=
EXTT9=
EXTT10=
EXTT11=
EXTT12=
EXTT13=
EXTT14=
EXTT15=
PLAYORDER=
